<svg width="16" height="16" viewBox="0 0 16 16" fill="none" xmlns="http://www.w3.org/2000/svg">
<path d="M8 0C6.41775 0 4.87103 0.469192 3.55544 1.34824C2.23985 2.22729 1.21447 3.47672 0.608967 4.93853C0.00346627 6.40034 -0.15496 8.00887 0.153721 9.56072C0.462403 11.1126 1.22433 12.538 2.34315 13.6569C3.46197 14.7757 4.88743 15.5376 6.43928 15.8463C7.99113 16.155 9.59966 15.9965 11.0615 15.391C12.5233 14.7855 13.7727 13.7602 14.6518 12.4446C15.5308 11.129 16 9.58225 16 8C16 6.94942 15.7931 5.90914 15.391 4.93853C14.989 3.96793 14.3997 3.08601 13.6569 2.34315C12.914 1.60028 12.0321 1.011 11.0615 0.608964C10.0909 0.206926 9.05058 0 8 0V0ZM8 14.4C6.7342 14.4 5.49683 14.0246 4.44435 13.3214C3.39188 12.6182 2.57158 11.6186 2.08717 10.4492C1.60277 9.27972 1.47603 7.9929 1.72298 6.75142C1.96992 5.50994 2.57946 4.36957 3.47452 3.47452C4.36958 2.57946 5.50995 1.96992 6.75142 1.72297C7.9929 1.47603 9.27973 1.60277 10.4492 2.08717C11.6186 2.57157 12.6182 3.39187 13.3214 4.44435C14.0246 5.49682 14.4 6.7342 14.4 8C14.4 9.69738 13.7257 11.3252 12.5255 12.5255C11.3253 13.7257 9.69739 14.4 8 14.4V14.4Z" fill="#898F97"/>
<path d="M7.99995 3.2C7.25734 3.2 6.54515 3.495 6.02005 4.02011C5.49495 4.54521 5.19995 5.2574 5.19995 6C5.19995 6.21218 5.28424 6.41566 5.43427 6.56569C5.58429 6.71572 5.78778 6.8 5.99995 6.8C6.21212 6.8 6.41561 6.71572 6.56564 6.56569C6.71567 6.41566 6.79995 6.21218 6.79995 6C6.79995 5.76267 6.87033 5.53066 7.00219 5.33332C7.13404 5.13598 7.32146 4.98217 7.54073 4.89135C7.76 4.80052 8.00128 4.77676 8.23406 4.82306C8.46684 4.86936 8.68066 4.98365 8.84848 5.15148C9.0163 5.3193 9.13059 5.53312 9.17689 5.7659C9.2232 5.99867 9.19943 6.23995 9.10861 6.45922C9.01778 6.6785 8.86397 6.86591 8.66663 6.99777C8.4693 7.12963 8.23729 7.2 7.99995 7.2C7.78778 7.2 7.58429 7.28429 7.43427 7.43432C7.28424 7.58435 7.19995 7.78783 7.19995 8V9.6C7.19995 9.81218 7.28424 10.0157 7.43427 10.1657C7.58429 10.3157 7.78778 10.4 7.99995 10.4C8.21212 10.4 8.41561 10.3157 8.56564 10.1657C8.71567 10.0157 8.79995 9.81218 8.79995 9.6V8.672C9.44643 8.48321 10.0029 8.06709 10.3667 7.50036C10.7306 6.93362 10.8773 6.25446 10.7799 5.58806C10.6825 4.92166 10.3475 4.31293 9.83658 3.87408C9.32571 3.43522 8.67342 3.19583 7.99995 3.2V3.2Z" fill="#898F97"/>
<path d="M7.99995 12.8C8.44178 12.8 8.79995 12.4418 8.79995 12C8.79995 11.5581 8.44178 11.2 7.99995 11.2C7.55812 11.2 7.19995 11.5581 7.19995 12C7.19995 12.4418 7.55812 12.8 7.99995 12.8Z" fill="#898F97"/>
</svg>
