<svg width="150" height="150" viewBox="0 0 150 150" fill="none" xmlns="http://www.w3.org/2000/svg">
<path d="M86.4375 118.75C85.5038 118.753 84.5812 118.547 83.7376 118.147C82.894 117.747 82.1507 117.163 81.5625 116.437L51.375 78.9375C50.4557 77.8192 49.9532 76.4164 49.9532 74.9687C49.9532 73.5211 50.4557 72.1183 51.375 71L82.625 33.5C83.6859 32.2236 85.2103 31.421 86.863 31.2686C88.5156 31.1162 90.1611 31.6266 91.4375 32.6875C92.7139 33.7484 93.5165 35.2728 93.6689 36.9255C93.8213 38.5781 93.3109 40.2236 92.25 41.5L64.3125 75L91.3125 108.5C92.0768 109.417 92.5622 110.535 92.7115 111.719C92.8607 112.904 92.6675 114.107 92.1547 115.185C91.6418 116.263 90.8308 117.172 89.8176 117.804C88.8044 118.436 87.6315 118.764 86.4375 118.75Z" fill="black"/>
</svg>
