<svg width="13" height="13" viewBox="0 0 13 13" fill="none" xmlns="http://www.w3.org/2000/svg">
<path fill-rule="evenodd" clip-rule="evenodd" d="M9.74997 10.2917C9.15251 10.2917 8.66664 9.80583 8.66664 9.20837C8.66664 8.61091 9.15251 8.12504 9.74997 8.12504C10.3474 8.12504 10.8333 8.61091 10.8333 9.20837C10.8333 9.80583 10.3474 10.2917 9.74997 10.2917M3.24996 8.12504C3.84742 8.12504 4.33329 8.61091 4.33329 9.20837C4.33329 9.80583 3.84742 10.2917 3.24996 10.2917C2.6525 10.2917 2.16662 9.80583 2.16662 9.20837C2.16662 8.61091 2.6525 8.12504 3.24996 8.12504M6.49998 1.08337C3.51323 1.08337 1.08331 3.60212 1.08331 6.69829V9.20838C1.08331 10.4033 2.05506 11.375 3.24998 11.375C4.4449 11.375 5.41665 10.4033 5.41665 9.20838C5.41665 8.01346 4.4449 7.04171 3.24998 7.04171C2.85348 7.04171 2.48677 7.15654 2.16665 7.34342V6.69829C2.16665 4.19958 4.11069 2.16671 6.49998 2.16671C8.88927 2.16671 10.8333 4.19958 10.8333 6.69829V7.34342C10.5132 7.15654 10.1465 7.04171 9.74998 7.04171C8.55506 7.04171 7.58331 8.01346 7.58331 9.20838C7.58331 10.4033 8.55506 11.375 9.74998 11.375C10.9449 11.375 11.9166 10.4033 11.9166 9.20838V6.69829C11.9166 3.60212 9.48673 1.08337 6.49998 1.08337" fill="#231F20"/>
<mask id="mask0" mask-type="alpha" maskUnits="userSpaceOnUse" x="1" y="1" width="11" height="11">
<path fill-rule="evenodd" clip-rule="evenodd" d="M9.74997 10.2917C9.15251 10.2917 8.66664 9.80583 8.66664 9.20837C8.66664 8.61091 9.15251 8.12504 9.74997 8.12504C10.3474 8.12504 10.8333 8.61091 10.8333 9.20837C10.8333 9.80583 10.3474 10.2917 9.74997 10.2917M3.24996 8.12504C3.84742 8.12504 4.33329 8.61091 4.33329 9.20837C4.33329 9.80583 3.84742 10.2917 3.24996 10.2917C2.6525 10.2917 2.16662 9.80583 2.16662 9.20837C2.16662 8.61091 2.6525 8.12504 3.24996 8.12504M6.49998 1.08337C3.51323 1.08337 1.08331 3.60212 1.08331 6.69829V9.20838C1.08331 10.4033 2.05506 11.375 3.24998 11.375C4.4449 11.375 5.41665 10.4033 5.41665 9.20838C5.41665 8.01346 4.4449 7.04171 3.24998 7.04171C2.85348 7.04171 2.48677 7.15654 2.16665 7.34342V6.69829C2.16665 4.19958 4.11069 2.16671 6.49998 2.16671C8.88927 2.16671 10.8333 4.19958 10.8333 6.69829V7.34342C10.5132 7.15654 10.1465 7.04171 9.74998 7.04171C8.55506 7.04171 7.58331 8.01346 7.58331 9.20838C7.58331 10.4033 8.55506 11.375 9.74998 11.375C10.9449 11.375 11.9166 10.4033 11.9166 9.20838V6.69829C11.9166 3.60212 9.48673 1.08337 6.49998 1.08337" fill="white"/>
</mask>
<g mask="url(#mask0)">
<rect width="13" height="13" fill="white"/>
</g>
</svg>
