<svg width="19" height="19" viewBox="0 0 19 19" fill="none" xmlns="http://www.w3.org/2000/svg">
<ellipse rx="9.5" ry="9.5" transform="matrix(-1 0 0 1 9.5 9.5)" fill="#898F97"/>
<path fill-rule="evenodd" clip-rule="evenodd" d="M12.75 13.2917C12.1525 13.2917 11.6666 12.8058 11.6666 12.2084C11.6666 11.6109 12.1525 11.125 12.75 11.125C13.3474 11.125 13.8333 11.6109 13.8333 12.2084C13.8333 12.8058 13.3474 13.2917 12.75 13.2917ZM6.24996 11.125C6.84742 11.125 7.33329 11.6109 7.33329 12.2084C7.33329 12.8058 6.84742 13.2917 6.24996 13.2917C5.6525 13.2917 5.16662 12.8058 5.16662 12.2084C5.16662 11.6109 5.6525 11.125 6.24996 11.125ZM9.49998 4.08337C6.51323 4.08337 4.08331 6.60212 4.08331 9.69829V12.2084C4.08331 13.4033 5.05506 14.375 6.24998 14.375C7.4449 14.375 8.41665 13.4033 8.41665 12.2084C8.41665 11.0135 7.4449 10.0417 6.24998 10.0417C5.85348 10.0417 5.48677 10.1565 5.16665 10.3434V9.69829C5.16665 7.19958 7.11069 5.16671 9.49998 5.16671C11.8893 5.16671 13.8333 7.19958 13.8333 9.69829V10.3434C13.5132 10.1565 13.1465 10.0417 12.75 10.0417C11.5551 10.0417 10.5833 11.0135 10.5833 12.2084C10.5833 13.4033 11.5551 14.375 12.75 14.375C13.9449 14.375 14.9166 13.4033 14.9166 12.2084V9.69829C14.9166 6.60212 12.4867 4.08337 9.49998 4.08337Z" fill="#231F20"/>
<mask id="mask0" mask-type="alpha" maskUnits="userSpaceOnUse" x="4" y="4" width="11" height="11">
<path fill-rule="evenodd" clip-rule="evenodd" d="M12.75 13.2917C12.1525 13.2917 11.6666 12.8058 11.6666 12.2084C11.6666 11.6109 12.1525 11.125 12.75 11.125C13.3474 11.125 13.8333 11.6109 13.8333 12.2084C13.8333 12.8058 13.3474 13.2917 12.75 13.2917ZM6.24996 11.125C6.84742 11.125 7.33329 11.6109 7.33329 12.2084C7.33329 12.8058 6.84742 13.2917 6.24996 13.2917C5.6525 13.2917 5.16662 12.8058 5.16662 12.2084C5.16662 11.6109 5.6525 11.125 6.24996 11.125ZM9.49998 4.08337C6.51323 4.08337 4.08331 6.60212 4.08331 9.69829V12.2084C4.08331 13.4033 5.05506 14.375 6.24998 14.375C7.4449 14.375 8.41665 13.4033 8.41665 12.2084C8.41665 11.0135 7.4449 10.0417 6.24998 10.0417C5.85348 10.0417 5.48677 10.1565 5.16665 10.3434V9.69829C5.16665 7.19958 7.11069 5.16671 9.49998 5.16671C11.8893 5.16671 13.8333 7.19958 13.8333 9.69829V10.3434C13.5132 10.1565 13.1465 10.0417 12.75 10.0417C11.5551 10.0417 10.5833 11.0135 10.5833 12.2084C10.5833 13.4033 11.5551 14.375 12.75 14.375C13.9449 14.375 14.9166 13.4033 14.9166 12.2084V9.69829C14.9166 6.60212 12.4867 4.08337 9.49998 4.08337Z" fill="white"/>
</mask>
<g mask="url(#mask0)">
<rect x="3" y="3" width="13" height="13" fill="white"/>
</g>
</svg>
