<svg width="150" height="150" viewBox="0 0 150 150" fill="none" xmlns="http://www.w3.org/2000/svg">
<path d="M104.958 85C106.155 81.8023 106.762 78.4142 106.75 75C106.75 67.4192 103.739 60.1489 98.3781 54.7885C93.0177 49.4281 85.7474 46.4167 78.1667 46.4167C74.7945 46.4206 71.4502 47.0274 68.2917 48.2083L75 55.125C76.0197 54.9619 77.0506 54.8783 78.0833 54.875C83.4435 54.8638 88.5903 56.9739 92.4 60.7446C96.2096 64.5152 98.3726 69.64 98.4167 75C98.4132 76.0327 98.3296 77.0636 98.1667 78.0833L104.958 85Z" fill="black"/>
<path d="M142.875 73.0417C128.833 47.0833 104.208 31.375 76.9583 31.375C69.539 31.3924 62.1694 32.5879 55.125 34.9167L61.8333 41.6667C66.7744 40.3897 71.855 39.7319 76.9583 39.7083C100.417 39.7083 121.75 52.7917 134.458 74.8333C129.796 83.0108 123.616 90.2233 116.25 96.0833L122.167 102C130.692 95.1222 137.772 86.6258 143 77L144.083 75L142.875 73.0417Z" fill="black"/>
<path d="M20.2917 24.0833L38.875 42.6667C27.1288 50.2296 17.5287 60.6907 11 73.0417L9.91666 75L11 77C25.0417 102.958 49.6666 118.667 76.9166 118.667C87.5527 118.665 98.0506 116.257 107.625 111.625L128.458 132.458L135.75 126.208L27.4167 17.875L20.2917 24.0833ZM60.9167 64.7083L88.625 92.4167C85.4943 94.3545 81.8902 95.3925 78.2083 95.4167C75.533 95.4167 72.8841 94.8877 70.4141 93.8602C67.944 92.8326 65.7015 91.3268 63.8156 89.4292C61.9297 87.5317 60.4376 85.28 59.4252 82.8037C58.4129 80.3273 57.9002 77.6752 57.9167 75C57.9636 71.3607 59.0007 67.8028 60.9167 64.7083V64.7083ZM54.875 58.6667C50.9768 64.1642 49.1497 70.8637 49.7171 77.5791C50.2846 84.2945 53.21 90.5925 57.9754 95.3579C62.7409 100.123 69.0388 103.049 75.7542 103.616C82.4696 104.184 89.1692 102.357 94.6667 98.4583L101.333 105.125C93.6157 108.424 85.3097 110.125 76.9166 110.125C53.4583 110.125 32.125 97.0417 19.4167 75C25.5154 64.2009 34.2988 55.1592 44.9167 48.75L54.875 58.6667Z" fill="black"/>
</svg>
