<svg width="21" height="23" viewBox="0 0 21 23" fill="none" xmlns="http://www.w3.org/2000/svg">
<path d="M14.6942 13.0333C14.8617 12.543 14.9467 12.0235 14.945 11.5C14.945 10.3376 14.5234 9.22284 13.773 8.40091C13.0225 7.57898 12.0047 7.11722 10.9434 7.11722C10.4713 7.11782 10.0031 7.21086 9.56085 7.39194L10.5 8.4525C10.6428 8.42748 10.7871 8.41467 10.9317 8.41416C11.6821 8.41245 12.4027 8.736 12.936 9.31416C13.4694 9.89233 13.7722 10.6781 13.7784 11.5C13.7779 11.6583 13.7662 11.8164 13.7434 11.9728L14.6942 13.0333Z" fill="black" fill-opacity="0.58"/>
<path d="M20.0025 11.1997C18.0367 7.21944 14.5892 4.81083 10.7742 4.81083C9.73545 4.8135 8.70372 4.9968 7.7175 5.35389L8.65667 6.38889C9.34841 6.19309 10.0597 6.09222 10.7742 6.08861C14.0583 6.08861 17.045 8.09472 18.8242 11.4744C18.1715 12.7283 17.3063 13.8342 16.275 14.7328L17.1033 15.64C18.2969 14.5854 19.2881 13.2826 20.02 11.8067L20.1717 11.5L20.0025 11.1997Z" fill="black" fill-opacity="0.58"/>
<path d="M2.84084 3.69278L5.4425 6.54222C3.79804 7.70188 2.45403 9.30591 1.54 11.1997L1.38834 11.5L1.54 11.8067C3.50584 15.7869 6.95334 18.1956 10.7683 18.1956C12.2574 18.1952 13.7271 17.8261 15.0675 17.1158L17.9842 20.3103L19.005 19.3519L3.83834 2.74084L2.84084 3.69278ZM8.52834 9.92194L12.4075 14.1706C11.9692 14.4677 11.4646 14.6269 10.9492 14.6306C10.5746 14.6306 10.2038 14.5495 9.85797 14.3919C9.51216 14.2343 9.19821 14.0034 8.93418 13.7125C8.67016 13.4215 8.46127 13.0763 8.31954 12.6966C8.17781 12.3169 8.10603 11.9102 8.10834 11.5C8.11491 10.942 8.2601 10.3964 8.52834 9.92194V9.92194ZM7.6825 8.99556C7.13676 9.83851 6.88096 10.8658 6.9604 11.8955C7.03985 12.9252 7.44941 13.8908 8.11657 14.6215C8.78372 15.3522 9.66544 15.8008 10.6056 15.8878C11.5457 15.9748 12.4837 15.6947 13.2533 15.0969L14.1867 16.1192C13.1062 16.625 11.9434 16.8858 10.7683 16.8858C7.48417 16.8858 4.4975 14.8797 2.71834 11.5C3.57217 9.84414 4.80184 8.45774 6.28834 7.475L7.6825 8.99556Z" fill="black" fill-opacity="0.58"/>
</svg>
