<svg width="27" height="27" viewBox="0 0 27 27" fill="none" xmlns="http://www.w3.org/2000/svg">
<path d="M26 22.8V12.5419C26 11.3655 26 10.7774 25.8455 10.2378C25.7087 9.75983 25.484 9.31159 25.1829 8.91601C24.8429 8.46938 24.3716 8.11748 23.4291 7.41369L17.3291 2.85903C15.9555 1.83345 15.2687 1.32066 14.515 1.12292C13.8496 0.948375 13.1504 0.948375 12.485 1.12292C11.7313 1.32066 11.0445 1.83345 9.67095 2.85902L3.57095 7.41369C2.62837 8.11748 2.15708 8.46938 1.81712 8.91601C1.51603 9.31159 1.29131 9.75983 1.15449 10.2378C1 10.7774 1 11.3655 1 12.5419V22.8C1 23.9201 1 24.4802 1.21799 24.908C1.40973 25.2843 1.71569 25.5903 2.09202 25.782C2.51984 26 3.0799 26 4.2 26H5.80555C6.58124 26 6.96909 26 7.28177 25.8939C7.87055 25.694 8.33288 25.2317 8.53275 24.6429C8.63889 24.3302 8.63889 23.9424 8.63889 23.1667V19.5278C8.63889 16.8431 10.8153 14.6667 13.5 14.6667C16.1847 14.6667 18.3611 16.8431 18.3611 19.5278V23.1667C18.3611 23.9424 18.3611 24.3302 18.4673 24.6429C18.6671 25.2317 19.1294 25.694 19.7182 25.8939C20.0309 26 20.4188 26 21.1944 26H22.8C23.9201 26 24.4802 26 24.908 25.782C25.2843 25.5903 25.5903 25.2843 25.782 24.908C26 24.4802 26 23.9201 26 22.8Z" stroke="#262F56" stroke-width="1.8"/>
</svg>
