<svg width="31" height="31" viewBox="0 0 31 31" fill="none" xmlns="http://www.w3.org/2000/svg">
<circle r="15.5" transform="matrix(-1 0 0 1 15.5 15.5)" fill="#F2E307"/>
<path fill-rule="evenodd" clip-rule="evenodd" d="M22.2215 23.0143C20.9403 23.0143 19.8983 21.975 19.8983 20.6971C19.8983 19.4191 20.9403 18.3798 22.2215 18.3798C23.5026 18.3798 24.5446 19.4191 24.5446 20.6971C24.5446 21.975 23.5026 23.0143 22.2215 23.0143M8.28282 18.3798C9.56401 18.3798 10.6059 19.4191 10.6059 20.6971C10.6059 21.975 9.56401 23.0143 8.28282 23.0143C7.00163 23.0143 5.95972 21.975 5.95972 20.6971C5.95972 19.4191 7.00163 18.3798 8.28282 18.3798M15.2522 3.31738C8.84735 3.31738 3.63663 8.70509 3.63663 15.3279V20.6971C3.63663 23.253 5.72045 25.3317 8.28284 25.3317C10.8452 25.3317 12.929 23.253 12.929 20.6971C12.929 18.1411 10.8452 16.0625 8.28284 16.0625C7.43258 16.0625 6.64621 16.3081 5.95973 16.7079V15.3279C5.95973 9.98307 10.1285 5.63467 15.2522 5.63467C20.3758 5.63467 24.5446 9.98307 24.5446 15.3279V16.7079C23.8581 16.3081 23.0717 16.0625 22.2215 16.0625C19.6591 16.0625 17.5753 18.1411 17.5753 20.6971C17.5753 23.253 19.6591 25.3317 22.2215 25.3317C24.7839 25.3317 26.8677 23.253 26.8677 20.6971V15.3279C26.8677 8.70509 21.657 3.31738 15.2522 3.31738" fill="#231F20"/>
<mask id="mask0" mask-type="alpha" maskUnits="userSpaceOnUse" x="3" y="3" width="24" height="23">
<path fill-rule="evenodd" clip-rule="evenodd" d="M22.2215 23.0143C20.9403 23.0143 19.8983 21.975 19.8983 20.6971C19.8983 19.4191 20.9403 18.3798 22.2215 18.3798C23.5026 18.3798 24.5446 19.4191 24.5446 20.6971C24.5446 21.975 23.5026 23.0143 22.2215 23.0143M8.28282 18.3798C9.56401 18.3798 10.6059 19.4191 10.6059 20.6971C10.6059 21.975 9.56401 23.0143 8.28282 23.0143C7.00163 23.0143 5.95972 21.975 5.95972 20.6971C5.95972 19.4191 7.00163 18.3798 8.28282 18.3798M15.2522 3.31738C8.84735 3.31738 3.63663 8.70509 3.63663 15.3279V20.6971C3.63663 23.253 5.72045 25.3317 8.28284 25.3317C10.8452 25.3317 12.929 23.253 12.929 20.6971C12.929 18.1411 10.8452 16.0625 8.28284 16.0625C7.43258 16.0625 6.64621 16.3081 5.95973 16.7079V15.3279C5.95973 9.98307 10.1285 5.63467 15.2522 5.63467C20.3758 5.63467 24.5446 9.98307 24.5446 15.3279V16.7079C23.8581 16.3081 23.0717 16.0625 22.2215 16.0625C19.6591 16.0625 17.5753 18.1411 17.5753 20.6971C17.5753 23.253 19.6591 25.3317 22.2215 25.3317C24.7839 25.3317 26.8677 23.253 26.8677 20.6971V15.3279C26.8677 8.70509 21.657 3.31738 15.2522 3.31738" fill="white"/>
</mask>
<g mask="url(#mask0)">
<rect x="1.31354" y="1.00012" width="27.8773" height="27.8075" fill="white"/>
</g>
</svg>
