<svg width="16" height="16" viewBox="0 0 16 16" fill="none" xmlns="http://www.w3.org/2000/svg">
<path d="M9.5752 1.93799C7.41195 2.55974 5.24846 3.18199 3.08521 3.80349C3.20227 3.97451 3.31106 4.15105 3.41121 4.33249C5.55171 3.67374 7.69246 3.01499 9.83321 2.35674C9.75421 2.21374 9.6682 2.07424 9.5752 1.93799Z" fill="#898F97"/>
<path d="M10.2 3.15601L3.87524 5.34351C3.94849 5.53676 4.01524 5.73301 4.07674 5.93176C6.17074 5.16126 8.26549 4.39151 10.3592 3.62151C10.3107 3.46481 10.2576 3.30958 10.2 3.15601" fill="#898F97"/>
<path d="M4.36475 7.02526C4.412 7.23051 4.455 7.43776 4.4965 7.64576L10.6845 4.98001C10.6517 4.81596 10.617 4.65228 10.5805 4.48901C8.50825 5.33451 6.437 6.18001 4.36475 7.02526" fill="#898F97"/>
<path d="M15.307 8.28875C14.743 7.67075 14.4222 6.939 14.2022 6.15925C13.5205 6.545 12.8753 6.91 12.2655 7.2555C11.598 4.889 11.7802 2.122 9.53025 0.5L0.5 2.56325C4.318 5.3145 3.286 12.4402 6.01025 15.1163C6.238 15.34 7.09125 15.7632 8.27725 15.2732C10.1153 14.5137 9.4415 13.6523 15.0735 9.5465C15.5702 9.184 15.6125 8.629 15.307 8.28875V8.28875ZM6.17525 10.7025C6.48375 11.7963 8.563 12.3888 8.204 14.0173C7.986 15.0075 6.7615 15.2077 6.33875 14.7832C5.22625 13.6667 4.766 11.6577 4.291 9.518C3.74125 7.042 3.17525 4.4915 1.50875 2.812L9.42125 1.0045C10.7925 2.09725 11.0873 3.7255 11.3985 5.44575C11.5213 6.1245 11.652 6.82 11.8495 7.49125L6.17525 10.7025Z" fill="#898F97"/>
</svg>
