<svg width="20" height="20" viewBox="0 0 20 20" fill="none" xmlns="http://www.w3.org/2000/svg">
<path d="M8.8 13.9L13.47 10.4C13.74 10.2 13.74 9.8 13.47 9.6L8.8 6.1C8.72572 6.04429 8.63738 6.01036 8.5449 6.00202C8.45242 5.99368 8.35945 6.01126 8.27639 6.05279C8.19334 6.09431 8.12349 6.15815 8.07467 6.23713C8.02586 6.31612 8 6.40714 8 6.5V13.5C8 13.91 8.47 14.15 8.8 13.9ZM10 0C4.48 0 0 4.48 0 10C0 15.52 4.48 20 10 20C15.52 20 20 15.52 20 10C20 4.48 15.52 0 10 0ZM10 18C5.59 18 2 14.41 2 10C2 5.59 5.59 2 10 2C14.41 2 18 5.59 18 10C18 14.41 14.41 18 10 18Z" fill="#FFEB3B"/>
</svg>
