<svg width="32" height="34" viewBox="0 0 32 34" fill="none" xmlns="http://www.w3.org/2000/svg">
<path d="M26.4053 29.4462V27.3923C26.4053 25.9397 25.8216 24.1534 24.4533 22.8349C23.4186 21.8379 22.5805 21.2308 21.2 21.2308C19.8194 21.2308 11.44 21.2308 11.44 21.2308C11.44 21.2308 11.44 21.2308 11.44 21.2308V21.2308C8.60614 21.2308 5.74616 23.6948 5.58911 26.5243C5.58573 26.5852 5.58398 26.6463 5.58398 26.7077C5.58398 28.7615 5.58398 29.4462 5.58398 29.4462" stroke="#262F56" stroke-width="2" stroke-linecap="round" stroke-linejoin="round"/>
<path d="M15.9946 15.7538C18.8695 15.7538 21.2 13.3017 21.2 10.2769C21.2 7.25209 18.8695 4.79999 15.9946 4.79999C13.1198 4.79999 10.7893 7.25209 10.7893 10.2769C10.7893 13.3017 13.1198 15.7538 15.9946 15.7538Z" stroke="#262F56" stroke-width="2" stroke-linecap="round" stroke-linejoin="round"/>
</svg>
