<svg width="21" height="23" viewBox="0 0 21 23" fill="none" xmlns="http://www.w3.org/2000/svg">
<path d="M19.6117 11.1997C17.6458 7.21945 14.1983 4.81084 10.3833 4.81084C6.56833 4.81084 3.115 7.21945 1.16667 11.1997L1.00333 11.5L1.155 11.8067C3.12083 15.7869 6.56833 18.1956 10.3833 18.1956C14.1983 18.1956 17.6517 15.8189 19.6117 11.8067L19.7633 11.5L19.6117 11.1997ZM10.3833 16.8858C7.09917 16.8858 4.08333 14.8797 2.33333 11.5C4.08333 8.12028 7.09917 6.11417 10.3833 6.11417C13.6675 6.11417 16.6483 8.12667 18.4275 11.5C16.6483 14.8797 13.6617 16.8858 10.3833 16.8858V16.8858Z" fill="black" fill-opacity="0.58"/>
<path d="M10.5525 7.13639C9.76157 7.14272 8.99009 7.40561 8.3355 7.89187C7.6809 8.37813 7.17256 9.06594 6.87468 9.86844C6.5768 10.6709 6.50273 11.5521 6.66184 12.4007C6.82094 13.2493 7.20609 14.0272 7.76862 14.6361C8.33116 15.2451 9.04585 15.6579 9.82243 15.8222C10.599 15.9866 11.4027 15.8952 12.1319 15.5596C12.8611 15.2241 13.4831 14.6593 13.9194 13.9368C14.3557 13.2142 14.5868 12.3663 14.5833 11.5C14.581 10.9234 14.4749 10.3529 14.2709 9.82127C14.067 9.28965 13.7692 8.80734 13.3948 8.40197C13.0203 7.9966 12.5765 7.67615 12.0888 7.45898C11.6011 7.24181 11.079 7.13218 10.5525 7.13639V7.13639ZM10.5525 14.6242C9.99382 14.6179 9.44929 14.4309 8.98731 14.0867C8.52533 13.7426 8.16649 13.2566 7.95587 12.6898C7.74526 12.1231 7.69224 11.5007 7.80349 10.9011C7.91474 10.3014 8.18529 9.75111 8.58117 9.31929C8.97705 8.88748 9.48059 8.59341 10.0286 8.47401C10.5765 8.35462 11.1445 8.41522 11.6611 8.64821C12.1778 8.8812 12.62 9.27619 12.9324 9.78357C13.2447 10.2909 13.4132 10.8881 13.4167 11.5C13.4182 11.9118 13.3451 12.3199 13.2016 12.7005C13.0581 13.0812 12.847 13.4268 12.5805 13.7175C12.3141 14.0081 11.9976 14.2379 11.6495 14.3935C11.3014 14.5492 10.9285 14.6276 10.5525 14.6242V14.6242Z" fill="black" fill-opacity="0.58"/>
</svg>
