<svg width="150" height="150" viewBox="0 0 150 150" fill="none" xmlns="http://www.w3.org/2000/svg">
<path d="M140.083 73.0417C126.042 47.0833 101.417 31.375 74.1667 31.375C46.9167 31.375 22.25 47.0833 8.33333 73.0417L7.16667 75L8.25 77C22.2917 102.958 46.9167 118.667 74.1667 118.667C101.417 118.667 126.083 103.167 140.083 77L141.167 75L140.083 73.0417ZM74.1667 110.125C50.7083 110.125 29.1667 97.0417 16.6667 75C29.1667 52.9583 50.7083 39.875 74.1667 39.875C97.625 39.875 118.917 53 131.625 75C118.917 97.0417 97.5833 110.125 74.1667 110.125V110.125Z" fill="black"/>
<path d="M75.375 46.5417C69.7255 46.5829 64.2149 48.2974 59.5393 51.4687C54.8636 54.6399 51.2326 59.1257 49.1049 64.3593C46.9771 69.593 46.4481 75.3398 47.5846 80.874C48.721 86.4082 51.4721 91.4814 55.4902 95.453C59.5083 99.4246 64.6132 102.116 70.1602 103.188C75.7073 104.26 81.4476 103.664 86.6561 101.476C91.8646 99.2873 96.3078 95.6043 99.4244 90.892C102.541 86.1798 104.191 80.6496 104.167 75C104.15 71.2393 103.392 67.5188 101.935 64.0517C100.478 60.5846 98.3517 57.4391 95.6771 54.7954C93.0024 52.1517 89.8323 50.0618 86.3485 48.6455C82.8647 47.2291 79.1356 46.5142 75.375 46.5417V46.5417ZM75.375 95.375C71.3844 95.3338 67.4949 94.1145 64.1951 91.87C60.8952 89.6256 58.3321 86.4561 56.8277 82.7597C55.3233 79.0634 54.9446 75.0048 55.7392 71.0939C56.5339 67.183 58.4664 63.5941 61.2941 60.778C64.1218 57.9618 67.7185 56.0439 71.6326 55.2653C75.5467 54.4866 79.6037 54.8818 83.2939 56.4013C86.9841 57.9208 90.1431 60.4968 92.374 63.8058C94.605 67.1148 95.8085 71.0092 95.8333 75C95.8445 77.6858 95.3223 80.3471 94.297 82.8296C93.2718 85.3121 91.764 87.5663 89.8609 89.4616C87.9578 91.3569 85.6975 92.8556 83.2108 93.8707C80.7242 94.8857 78.0608 95.3971 75.375 95.375V95.375Z" fill="black"/>
</svg>
