<svg width="191" height="193" viewBox="0 0 191 193" fill="none" xmlns="http://www.w3.org/2000/svg">
<rect x="42.02" y="39.8867" width="105.687" height="113.227" fill="white"/>
<path d="M95.5 3.01562C44.3926 3.01562 2.98438 44.8574 2.98438 96.5C2.98438 148.143 44.3926 189.984 95.5 189.984C146.607 189.984 188.016 148.143 188.016 96.5C188.016 44.8574 146.607 3.01562 95.5 3.01562ZM131.312 126.656C131.312 129.973 128.627 132.688 125.344 132.688H65.6562C62.3734 132.688 59.6875 129.973 59.6875 126.656V66.3438C59.6875 63.0266 62.3734 60.3125 65.6562 60.3125H125.344C128.627 60.3125 131.312 63.0266 131.312 66.3438V126.656Z" fill="black"/>
</svg>
