<svg width="150" height="150" viewBox="0 0 150 150" fill="none" xmlns="http://www.w3.org/2000/svg">
<rect x="33" y="31" width="83" height="88" fill="white"/>
<path d="M75 2.34375C34.8633 2.34375 2.34375 34.8633 2.34375 75C2.34375 115.137 34.8633 147.656 75 147.656C115.137 147.656 147.656 115.137 147.656 75C147.656 34.8633 115.137 2.34375 75 2.34375ZM103.125 98.4375C103.125 101.016 101.016 103.125 98.4375 103.125H51.5625C48.9844 103.125 46.875 101.016 46.875 98.4375V51.5625C46.875 48.9844 48.9844 46.875 51.5625 46.875H98.4375C101.016 46.875 103.125 48.9844 103.125 51.5625V98.4375Z" fill="black"/>
</svg>
